<svg xmlns="http://www.w3.org/2000/svg" width="170.871" height="180" viewBox="0 0 170.871 180">
  <g id="Raggruppa_2019" data-name="Raggruppa 2019" transform="translate(-165.633 -14.173)">
    <path id="Tracciato_2096" data-name="Tracciato 2096" d="M178.83,96.953c6.888-2.751,13.368-6.486,19.926-10,3.68-1.969,7.823-4.726,12.191-4.44,3.592.242,6.024,2.773,9.16,4.159,5.188,2.305,11.668-4.434,16.042-6.844,3.037-1.672,6.354-2.47,9.732-1.337,4.544,1.518,8.615,5.193,12.51,7.883l8.4,5.8a74.5,74.5,0,0,0,3.581-21.417,59.231,59.231,0,0,0-.886-10.376,43.087,43.087,0,0,0-1.931-7.658,63.509,63.509,0,0,0-4.621-10.145c-8.742-14.711-19.7-19.15-24.894-20C246.9,26.437,255.7,41,253.974,53.212,251.129,34.491,236.4,23.521,226.28,20.776a12.647,12.647,0,0,0-3.884-.418c-51.785,3.823-52.857,48.412-49.2,63.018A54.765,54.765,0,0,0,178.83,96.953Z" transform="translate(28.377 27.743)" fill="#e13510"/>
    <path id="Tracciato_2097" data-name="Tracciato 2097" d="M249.43,39.953c-3.73-2.6-7.438-5.809-11.536-7.8-5.622-2.729-11.113,3.081-15.706,5.853-2.718,1.639-5.782,3.037-9.028,2.454-3.488-.633-5.9-3.581-9.237-4.489-3.185-.864-6.7,1.705-9.435,3.18-1.975,1.067-3.944,2.162-5.914,3.24a140.1,140.1,0,0,1-15.1,7.372C184.5,67.916,206.6,84.7,233.449,72.972c13.588-5.931,21.048-16.284,25.108-26.66Z" transform="translate(35.313 77.729)" fill="#f27c00"/>
    <path id="Tracciato_2098" data-name="Tracciato 2098" d="M170.649,14.173c3.515,7.053,29.873,34.972,63.635,27.909C223.831,22.854,188.556,17,170.649,14.173Z" transform="translate(22.579 0)" fill="#7f9b16"/>
    <g id="Raggruppa_2006" data-name="Raggruppa 2006" transform="translate(262.844 91.7)">
      <g id="Raggruppa_2003" data-name="Raggruppa 2003">
        <g id="Raggruppa_2002" data-name="Raggruppa 2002">
          <path id="Tracciato_2099" data-name="Tracciato 2099" d="M191.152,36.015c-.286-2.987-1.782-8.995-6.046-7.52a2.251,2.251,0,0,0-1.634,2.943c.616,1.447,2.272,1.337,3.466.8.82-.369.016-.622-.512-.391-1.766.8-2.982-3.207-.281-2.822a3.72,3.72,0,0,1,2.239,1.771,11.135,11.135,0,0,1,2.107,5.111c.033.319.7.55.66.11Z" transform="translate(-183.303 -28.265)" fill="#fff"/>
        </g>
      </g>
      <g id="Raggruppa_2005" data-name="Raggruppa 2005" transform="translate(8.98 1.958)">
        <g id="Raggruppa_2004" data-name="Raggruppa 2004">
          <path id="Tracciato_2100" data-name="Tracciato 2100" d="M184.965,37.064c-.181-3,.363-9.165,4.8-8.373a2.252,2.252,0,0,1,2.074,2.652c-.391,1.524-2.035,1.672-3.3,1.326-.864-.231-.11-.611.446-.462,1.87.512,2.448-3.636-.165-2.833a3.69,3.69,0,0,0-1.931,2.1,11.178,11.178,0,0,0-1.293,5.38c.022.319-.605.655-.633.215Z" transform="translate(-184.936 -28.621)" fill="#fff"/>
        </g>
      </g>
    </g>
    <g id="Raggruppa_2007" data-name="Raggruppa 2007" transform="translate(165.633 109.051)">
      <path id="Tracciato_2101" data-name="Tracciato 2101" d="M167.988,46.6l-.974-6.024a3.6,3.6,0,0,1,.666-.176l.655,1.348c.308.622,1.2.589,1.893.264L174,40.231l-.8-4.951-4.286-.825a1.291,1.291,0,0,0-1.584,1.21L167.1,36.8a2.243,2.243,0,0,1-.688.028l-.781-4.847a2.828,2.828,0,0,1,.666-.171l.457.4a2.871,2.871,0,0,0,1.447.682l15.079,3.3.952,1.628L170.48,44.9a3.96,3.96,0,0,0-1.551,1.271l-.253.435A2.4,2.4,0,0,1,167.988,46.6Zm11.421-8.918,1.854-.82-.016-.127-1.992-.308-4.764-.9.666,4.148Z" transform="translate(-165.633 -29.642)" fill="#7f9b16"/>
      <path id="Tracciato_2102" data-name="Tracciato 2102" d="M168.074,45.778l-1.838-5.936a2.057,2.057,0,0,1,.633-.286l.748.957a1.152,1.152,0,0,0,1.326.286l3.774-1.078,11.542-3.57-.6-1.942.875-.27a19.108,19.108,0,0,1,1.5,3.169c.176.572.011.957-.666,1.166l-11.96,3.7-4.2,1.392c-.368.11-.49.193-.462.429l.116,1.848A2.8,2.8,0,0,1,168.074,45.778Z" transform="translate(-162.919 -20.076)" fill="#7f9b16"/>
      <path id="Tracciato_2103" data-name="Tracciato 2103" d="M168.138,48.808a12.311,12.311,0,0,1-1.249-4.236l5.358-2.316,10.915-4.968-.869-1.909.831-.38a17.344,17.344,0,0,1,1.915,2.943c.292.644.187.952-.5,1.265L173.2,44.363l-4.379,2.107a7.863,7.863,0,0,0,.605,1.821c.974,2.146,3.5,2.129,5.947,1.012,2.613-1.188,4.225-2.767,3.339-4.715a7.069,7.069,0,0,0-.864-1.4l.567-.468a5.392,5.392,0,0,1,1.859,2c1.232,2.712.457,4.973-3.526,6.783C173.161,53.138,169.563,51.95,168.138,48.808Z" transform="translate(-159.979 -15.3)" fill="#7f9b16"/>
      <path id="Tracciato_2104" data-name="Tracciato 2104" d="M171.228,51.067l-3.345-5.386a2.567,2.567,0,0,1,.556-.446l1.106.875a1.307,1.307,0,0,0,1.309-.06l3.345-2,4.242-2.635-1.111-1.782.814-.506a18.134,18.134,0,0,1,2.278,2.718c.33.528.324.908-.275,1.282l-4.715,2.91L171.745,48.4c-.385.237-.435.418-.347.644l.583,1.678A3.017,3.017,0,0,1,171.228,51.067Zm11.459-10.986a3.637,3.637,0,0,1,.688-2.52,3.472,3.472,0,0,1,2.542.512,3.664,3.664,0,0,1-.655,2.525A3.724,3.724,0,0,1,182.687,40.081Z" transform="translate(-155.505 -4.169)" fill="#7f9b16"/>
      <path id="Tracciato_2105" data-name="Tracciato 2105" d="M179.922,45.583c.336-1.117.589-2.663-.116-3.548-1.326-1.661-3.031-1.645-5.633.435-2.228,1.771-3.416,3.978-1.639,6.206a9.113,9.113,0,0,0,2.184,1.931l-.435.7a5.4,5.4,0,0,1-3.675-2.168c-2.393-3-2.08-5.276,1.557-8.17,2.569-2.047,6.646-2.338,8.8.358.814,1.023,2.118,3.053.99,3.95A2.023,2.023,0,0,1,179.922,45.583Z" transform="translate(-150.159 4.385)" fill="#7f9b16"/>
      <path id="Tracciato_2106" data-name="Tracciato 2106" d="M172.459,51.379c-2.465-2.289-2.718-4.979.258-8.192,2.283-2.454,6.354-3.158,8.6-1.073,2.668,2.476,2.7,5.116-.259,8.313C178.791,52.864,174.813,53.563,172.459,51.379Zm7.8-8.412c-1.711-1.59-3.8-.066-5.441,1.705-1.783,1.92-3.015,4.165-1.133,5.914,1.716,1.59,3.625.1,5.27-1.678C180.705,47.022,182.174,44.744,180.26,42.967Z" transform="translate(-143.51 11.188)" fill="#7f9b16"/>
      <path id="Tracciato_2107" data-name="Tracciato 2107" d="M182.952,47.577c-.017-1.166-.237-2.718-1.177-3.35-1.76-1.188-3.383-.66-5.243,2.1-1.59,2.366-2.063,4.825.3,6.42a9.138,9.138,0,0,0,2.657,1.188l-.2.8a5.415,5.415,0,0,1-4.159-.963c-3.18-2.14-3.565-4.407-.963-8.263,1.832-2.723,5.639-4.231,8.494-2.305,1.084.732,2.932,2.283,2.129,3.471A2.006,2.006,0,0,1,182.952,47.577Z" transform="translate(-134.924 17.723)" fill="#7f9b16"/>
      <path id="Tracciato_2108" data-name="Tracciato 2108" d="M184.418,48.106c-.187-1.15-.633-2.652-1.656-3.141-1.915-.913-3.444-.154-4.88,2.85-1.227,2.569-1.331,5.072,1.238,6.3a9.222,9.222,0,0,0,2.806.787l-.083.82a5.414,5.414,0,0,1-4.253-.341c-3.46-1.656-4.17-3.84-2.168-8.038,1.419-2.965,4.957-5.012,8.071-3.521,1.177.561,3.235,1.821,2.619,3.119A2.027,2.027,0,0,1,184.418,48.106Z" transform="translate(-126.544 22.179)" fill="#7f9b16"/>
      <path id="Tracciato_2109" data-name="Tracciato 2109" d="M183.842,57.612c-1.463-.424-1.408-1.381-1.144-2.443a5.378,5.378,0,0,1-4.374.864,2.67,2.67,0,0,1-1.975-3.493c.721-2.476,3.026-2.657,5.116-2.4,1.177.149,2.382.314,2.553.336l.55-1.881c.468-1.617-.182-2.448-2.052-2.993a11.552,11.552,0,0,0-2.9-.369l-.022-.935a9.059,9.059,0,0,1,4.258-.066c1.584.462,3.994,1.375,3.1,4.44l-.858,2.954-1.15,4.511,1.953.567-.077.644A5.258,5.258,0,0,1,183.842,57.612Zm-.115-6.134s-1.436-.2-2.256-.226c-1.364-.066-2.327.341-2.624,1.37a1.378,1.378,0,0,0,1.007,1.837,7,7,0,0,0,2.982.083Z" transform="translate(-118.012 25.2)" fill="#7f9b16"/>
      <path id="Tracciato_2110" data-name="Tracciato 2110" d="M186.386,60.626l-6.47.083a2.456,2.456,0,0,1-.072-.754l1.3-.38a1.443,1.443,0,0,0,.836-1.5L182,54.321l-.1-8.3A.959.959,0,0,0,181.2,45l-1.375-.44a1.862,1.862,0,0,1,.077-.66l6.145-.077c5.116-.066,8.863,1.529,8.945,7.916C195.062,57.325,191.591,60.56,186.386,60.626ZM186,45.123l-1.689.022.11,9.165.192,5.083,1.992-.022c3.879-.049,5.688-2.718,5.633-7.141C192.185,47.83,190.006,45.073,186,45.123Z" transform="translate(-101.742 24.414)" fill="#7f9b16"/>
      <path id="Tracciato_2111" data-name="Tracciato 2111" d="M185.547,51.45c.93,3.51,2.74,4.022,4.984,3.554a15.141,15.141,0,0,0,2.96-1.029l.462.765a6.357,6.357,0,0,1-3.8,2.256c-3.669.759-5.93-.121-6.9-4.786-.748-3.62.814-7.157,4.087-7.834,3.185-.66,4.968,1.485,5.683,4.924l.115.578Zm1.617-5.826c-1.469.3-2.432,1.782-1.849,4.715l5.034-1.045C189.855,46.9,189.007,45.239,187.164,45.624Z" transform="translate(-87.149 26.366)" fill="#7f9b16"/>
      <path id="Tracciato_2112" data-name="Tracciato 2112" d="M196.952,60.284l-5.853,2.08a2.081,2.081,0,0,1-.308-.616l.924-.792a1.146,1.146,0,0,0,.231-1.337l-1.232-3.724-4.038-11.388-1.92.682-.308-.864a18.658,18.658,0,0,1,3.108-1.628c.561-.2.957-.05,1.194.616l4.187,11.795,1.557,4.137c.132.369.22.484.457.446l1.837-.193A2.554,2.554,0,0,1,196.952,60.284Z" transform="translate(-80.944 18.968)" fill="#7f9b16"/>
      <path id="Tracciato_2113" data-name="Tracciato 2113" d="M199.129,42.3a2.919,2.919,0,0,0-.06,1.915l3.312,14.826-1.04,1.3L189.3,50.525c-.336-.275-.913-.77-1.375-.737l-1.122.05a1.38,1.38,0,0,1-.22-.539l5.061-3.3a2.252,2.252,0,0,1,.473.567l-.787.836c-.468.5-.363.974.226,1.485l7.328,6.3,1.915,1.722.055-.039-.682-2.492-2.151-8.8c-.231-1.023-.913-1.48-1.562-1.381l-1.15.121a1.979,1.979,0,0,1-.253-.545l4.093-2.663a1.455,1.455,0,0,1,.363.473Z" transform="translate(-71.342 12.239)" fill="#7f9b16"/>
      <path id="Tracciato_2114" data-name="Tracciato 2114" d="M193.419,49.03c2.608,2.525,4.423,2.025,6.1.462a14.578,14.578,0,0,0,2-2.415l.8.418a6.379,6.379,0,0,1-2.09,3.895c-2.745,2.547-5.138,2.965-8.379-.528-2.514-2.712-3-6.547-.556-8.819,2.388-2.217,5.023-1.3,7.41,1.276l.4.435ZM191.78,43.2c-1.095,1.018-1.155,2.784.864,4.99l3.768-3.5C194.75,42.907,193.166,41.922,191.78,43.2Z" transform="translate(-57.359 10.774)" fill="#7f9b16"/>
      <path id="Tracciato_2115" data-name="Tracciato 2115" d="M201.818,50.229a8.49,8.49,0,0,1-3.229,2.542l-2.575-2.327.534-.622c1.392.963,3.136,1.161,4.418-.418.792-.985,1.067-2.228.055-3.042-1.755-1.425-5.281,3.444-8.615.743-1.788-1.447-1.628-3.856-.16-5.672a7.232,7.232,0,0,1,2.949-2.267l2.129,2.19-.473.44c-1.227-.66-2.5-1.078-3.884.633-.77.952-.924,1.9.016,2.663,1.876,1.524,5.639-3.455,8.709-.974C203.942,45.938,203.183,48.551,201.818,50.229Z" transform="translate(-50.976 3.452)" fill="#7f9b16"/>
      <path id="Tracciato_2116" data-name="Tracciato 2116" d="M208.014,43.817c-.49.853-1.309,1.128-2.465.484a5.894,5.894,0,0,1-.275,4.489c-1.474,2.558-3.1,2.046-4.957.974l-6.635-3.829-.941,1.634-.754-.435A14.44,14.44,0,0,1,193.11,44.1c.363-.633.776-.792,1.4-.429l4.665,2.69,1.953,1.078c1.216.677,2.212,1.1,2.927-.138a8.511,8.511,0,0,0,.721-3.394l-3.086-1.854-4.324-2.5-1,1.722-.754-.429a15.626,15.626,0,0,1,1.155-3.092.913.913,0,0,1,1.425-.418l4.682,2.7,4.06,2.223,1.051-1.821.616.259A5.956,5.956,0,0,1,208.014,43.817Z" transform="translate(-46.999 -5.639)" fill="#7f9b16"/>
      <path id="Tracciato_2117" data-name="Tracciato 2117" d="M197.742,35.054a5.932,5.932,0,0,0,1.612,1.909l7.707,6.9-.094,1.771-11.212-.446a3.174,3.174,0,0,0-1.832.4,2.757,2.757,0,0,1-.737-.38l1.672-4.357a7.055,7.055,0,0,1,.913.418l-.506,1.32,9.622.693-6.046-5.166c-.776-.666-1.359-.66-1.722-.3l-.517.583a3.117,3.117,0,0,1-.688-.308l1.26-3.279A5.958,5.958,0,0,1,197.742,35.054Z" transform="translate(-41.602 -16.124)" fill="#7f9b16"/>
      <path id="Tracciato_2118" data-name="Tracciato 2118" d="M196.561,35.771a3.661,3.661,0,0,1-2.289,1.254,3.446,3.446,0,0,1-1.4-2.184,3.687,3.687,0,0,1,2.272-1.282A3.69,3.69,0,0,1,196.561,35.771Zm15.861.616-1.546,6.151a2.847,2.847,0,0,1-.71-.088l-.138-1.408c-.022-.38-.512-.77-.952-.9l-3.763-1.012-4.841-1.221-.517,2.036-.93-.231a18.453,18.453,0,0,1,.374-3.532c.154-.605.429-.864,1.117-.693l5.369,1.375,4.258,1.007c.44.11.605.022.71-.2l.8-1.584A3,3,0,0,1,212.421,36.387Z" transform="translate(-43.066 -21.826)" fill="#7f9b16"/>
      <path id="Tracciato_2119" data-name="Tracciato 2119" d="M207.1,37.954c-.418,3.334-2.459,5.105-6.8,4.561-3.328-.418-6.272-3.312-5.892-6.349.451-3.614,2.58-5.182,6.9-4.643C204.611,31.941,207.494,34.763,207.1,37.954Zm-11.382-1.43c-.286,2.316,2.162,3.119,4.561,3.422,2.6.325,5.144.022,5.463-2.531.292-2.316-2.036-3-4.434-3.3C198.747,33.795,196.04,33.932,195.715,36.524Z" transform="translate(-36.263 -31.419)" fill="#7f9b16"/>
    </g>
    <g id="Raggruppa_2008" data-name="Raggruppa 2008" transform="translate(216.588 152.084)">
      <path id="Tracciato_2120" data-name="Tracciato 2120" d="M177.221,47.492c-2.4-1.43-3.015-3.477-1.507-6.008a4.489,4.489,0,0,1,6.03-1.667,4.9,4.9,0,0,1,1.81,1.645l-.9,1.507-.336-.2a2.015,2.015,0,0,0-1.007-2.316c-1.436-.853-3.015-.578-4.3,1.579-1.161,1.942-.776,3.873.814,4.825a5.722,5.722,0,0,0,1.876.748l-.154.638A4.948,4.948,0,0,1,177.221,47.492Z" transform="translate(-174.895 -39.241)" fill="#e13510"/>
      <path id="Tracciato_2121" data-name="Tracciato 2121" d="M182.331,42.95a2.442,2.442,0,0,0-.8-.616,2.215,2.215,0,0,0-1.436-.193l-.77,1.667-.9,2.074c-.083.171-.094.259.022.336l1.067.754a1.388,1.388,0,0,1-.237.369l-3.3-1.518a.93.93,0,0,1,.1-.33l.589-.016a.8.8,0,0,0,.715-.55l.8-1.645,1.078-2.344-1.023-.468.2-.44a10.054,10.054,0,0,1,1.821.556c.275.127.391.292.248.605l-.259.556a2.4,2.4,0,0,1,2.09-.22,1.932,1.932,0,0,1,.721.517Z" transform="translate(-170.053 -35.696)" fill="#e13510"/>
      <path id="Tracciato_2122" data-name="Tracciato 2122" d="M180.151,49.911l-3.218-1.183a1.216,1.216,0,0,1,.082-.358l.759.011c.2.017.435-.215.528-.429l.726-1.881.886-2.421-1.062-.4.165-.462a10.276,10.276,0,0,1,1.876.413c.314.116.44.275.314.616l-1,2.685-.743,2.14c-.082.22-.038.308.072.374l.809.512A1.329,1.329,0,0,1,180.151,49.911Zm1.095-8.148a1.942,1.942,0,0,1-.561-1.26,1.854,1.854,0,0,1,1.238-.589,1.922,1.922,0,0,1,.578,1.254A1.945,1.945,0,0,1,181.246,41.763Z" transform="translate(-165.722 -36.253)" fill="#e13510"/>
      <path id="Tracciato_2123" data-name="Tracciato 2123" d="M179.732,47.213a4.794,4.794,0,0,1-1.964-1.029l.572-1.694.424.127a1.616,1.616,0,0,0,1.188,2.025c.66.176,1.331.055,1.507-.589.308-1.128-2.866-1.826-2.283-3.961a2.077,2.077,0,0,1,2.751-1.221,4.064,4.064,0,0,1,1.771.946l-.605,1.458-.319-.138a1.4,1.4,0,0,0-1.177-1.722c-.633-.176-1.133-.055-1.3.545-.33,1.2,2.949,1.992,2.41,3.956C182.312,47.361,180.86,47.521,179.732,47.213Z" transform="translate(-161.964 -32.421)" fill="#e13510"/>
      <path id="Tracciato_2124" data-name="Tracciato 2124" d="M181.36,47.555c-1.793-.292-2.718-1.386-2.355-3.614a3.353,3.353,0,0,1,3.521-2.9c1.942.319,2.756,1.452,2.393,3.669A3.294,3.294,0,0,1,181.36,47.555Zm.952-5.848c-1.249-.2-1.716,1.045-1.92,2.278-.215,1.337-.088,2.657,1.282,2.883,1.243.2,1.65-.985,1.848-2.217C183.737,43.335,183.709,41.932,182.312,41.707Z" transform="translate(-156.743 -31.305)" fill="#e13510"/>
      <path id="Tracciato_2125" data-name="Tracciato 2125" d="M191.758,47.663l-2.976.039a1.732,1.732,0,0,1-.055-.407l.418-.22a.62.62,0,0,0,.281-.594l.006-2-.011-.891c-.011-.979-.11-1.507-1.188-1.5a4.606,4.606,0,0,0-1.672.4,4.783,4.783,0,0,1,.055.7l.017,1.32.066,2.305c0,.2.049.275.176.308l.93.165a1.28,1.28,0,0,1-.044.424l-3.02.039a3.154,3.154,0,0,1-.039-.38l.4-.215a.527.527,0,0,0,.248-.5l.022-2.135-.011-.9c-.016-.974-.077-1.507-1.144-1.491a3.923,3.923,0,0,0-1.672.457l.027,1.969.049,2.19c.011.209.039.363.187.4l.836.176a1.375,1.375,0,0,1-.049.44l-3.147.039a.967.967,0,0,1-.055-.352l.506-.22a.661.661,0,0,0,.4-.649l-.006-2-.033-2.58-1.1.016-.005-.484a10.561,10.561,0,0,1,1.881-.275c.336,0,.457.116.457.418l.011.506a3.4,3.4,0,0,1,2.2-1.007c1.1-.011,1.557.429,1.771.946a3.573,3.573,0,0,1,2.272-1c1.749-.022,1.92.869,1.936,2.129l.017,1.2.077,2.322c0,.209.038.259.209.292l.814.165A1.433,1.433,0,0,1,191.758,47.663Z" transform="translate(-151.219 -30.726)" fill="#e13510"/>
      <path id="Tracciato_2126" data-name="Tracciato 2126" d="M194.884,46.751l-2.916.594a1.5,1.5,0,0,1-.127-.4l.363-.292a.619.619,0,0,0,.171-.633l-.369-1.97-.176-.88c-.193-.957-.391-1.458-1.447-1.243a4.474,4.474,0,0,0-1.568.7,4.716,4.716,0,0,1,.187.682l.259,1.293.5,2.256c.039.2.1.259.231.264l.941-.011a1.213,1.213,0,0,1,.038.429l-2.96.6a2.677,2.677,0,0,1-.11-.363l.358-.292a.538.538,0,0,0,.149-.534l-.374-2.1-.182-.88c-.192-.957-.358-1.463-1.4-1.254a3.889,3.889,0,0,0-1.557.759l.391,1.931.462,2.14c.049.2.1.352.258.358l.858.017a1.441,1.441,0,0,1,.028.44L183.8,49a1,1,0,0,1-.115-.341l.457-.308a.663.663,0,0,0,.27-.715l-.38-1.964-.512-2.531-1.078.22-.094-.473a9.791,9.791,0,0,1,1.8-.616c.33-.066.468.022.528.325l.1.5a3.411,3.411,0,0,1,1.975-1.4,1.633,1.633,0,0,1,1.915.6,3.547,3.547,0,0,1,2.047-1.4c1.711-.347,2.046.5,2.3,1.733l.237,1.177.506,2.267c.044.209.088.248.264.248l.831.011A1.338,1.338,0,0,1,194.884,46.751Z" transform="translate(-141.356 -32.163)" fill="#e13510"/>
      <path id="Tracciato_2127" data-name="Tracciato 2127" d="M188.733,46.927c-1.7.638-3.048.149-3.846-1.964a3.36,3.36,0,0,1,1.612-4.269c1.843-.693,3.114-.116,3.906,1.992A3.3,3.3,0,0,1,188.733,46.927Zm-2.085-5.545c-1.183.446-.968,1.76-.528,2.927.473,1.271,1.243,2.355,2.542,1.865,1.183-.446.941-1.678.5-2.844C188.695,42.086,187.968,40.881,186.648,41.382Z" transform="translate(-130.909 -33.956)" fill="#e13510"/>
      <path id="Tracciato_2128" data-name="Tracciato 2128" d="M192.808,48.01l-3.02,1.458a1.035,1.035,0,0,1-.2-.3l.457-.468a.592.592,0,0,0,.055-.71l-.836-1.843-2.718-5.622-.99.473-.209-.424a10.76,10.76,0,0,1,1.579-1.045.43.43,0,0,1,.666.237l2.817,5.826,1.034,2.041c.088.176.143.231.264.2l.974-.22A1.154,1.154,0,0,1,192.808,48.01Z" transform="translate(-127.843 -38.274)" fill="#e13510"/>
      <path id="Tracciato_2129" data-name="Tracciato 2129" d="M193.1,44.762c-.7.418-1.051.061-1.359-.413a2.966,2.966,0,0,1-1.3,2.008,1.412,1.412,0,0,1-2.074-.451c-.682-1.144.1-2.107.979-2.833.5-.407,1.007-.82,1.084-.875l-.523-.875c-.446-.743-1.007-.781-1.909-.242a6.43,6.43,0,0,0-1.221,1l-.363-.319a5.013,5.013,0,0,1,1.557-1.678c.765-.457,2.013-1.078,2.855.336l.814,1.37,1.3,2.019.946-.561.22.253A2.977,2.977,0,0,1,193.1,44.762Zm-2.393-2.1s-.611.49-.924.8c-.534.506-.737,1.023-.451,1.5a.726.726,0,0,0,1.078.248,4.066,4.066,0,0,0,1.144-1.133Z" transform="translate(-123.018 -37.86)" fill="#e13510"/>
    </g>
  </g>
</svg>
